HIERARCHY
ROOT Hips
{
  OFFSET 47.5292 84.2727 -4.5951
  CHANNELS 6 Xposition Yposition Zposition Zrotation Xrotation Yrotation
  JOINT spine
  {
    OFFSET 0 6.2448 0.359107
    CHANNELS 3 Zrotation Xrotation Yrotation
    JOINT spine1
    {
      OFFSET 0 9.06941 0
      CHANNELS 3 Zrotation Xrotation Yrotation
      JOINT spine2
      {
        OFFSET 0 8.69014 0
        CHANNELS 3 Zrotation Xrotation Yrotation
        JOINT Neck
        {
          OFFSET 0 22.3112 1.06372
          CHANNELS 3 Zrotation Xrotation Yrotation
          JOINT Head
          {
            OFFSET 0 6.74081 0
            CHANNELS 3 Zrotation Xrotation Yrotation
            End Site
            {
              OFFSET 0 16.3165 -5.38097
            }
          }
        }
        JOINT RightShoulder
        {
          OFFSET -3.65916 9.38468 -0.509514
          CHANNELS 3 Zrotation Xrotation Yrotation
          JOINT RightArm
          {
            OFFSET 0 12.3089 0
            CHANNELS 3 Zrotation Xrotation Yrotation
            JOINT RightArmRoll
            {
              OFFSET 0 6.21375 0
              CHANNELS 3 Zrotation Xrotation Yrotation
              JOINT RightForeArm
              {
                OFFSET 0 18.0985 0
                CHANNELS 3 Zrotation Xrotation Yrotation
                JOINT RightForeArmRoll
                {
                  OFFSET 0 6.97279 0
                  CHANNELS 3 Zrotation Xrotation Yrotation
                  JOINT RightHand
                  {
                    OFFSET 0 13.9929 0
                    CHANNELS 3 Zrotation Xrotation Yrotation
                    End Site
                    {
                      OFFSET 0 0 0
                    }
                  }
                }
              }
            }
          }
        }
        JOINT LeftShoulder
        {
          OFFSET 3.65916 9.38468 -0.509514
          CHANNELS 3 Zrotation Xrotation Yrotation
          JOINT LeftArm
          {
            OFFSET 0 12.3089 0
            CHANNELS 3 Zrotation Xrotation Yrotation
            JOINT LeftArmRoll
            {
              OFFSET 0 6.21375 0
              CHANNELS 3 Zrotation Xrotation Yrotation
              JOINT LeftForeArm
              {
                OFFSET 0 18.0985 0
                CHANNELS 3 Zrotation Xrotation Yrotation
                JOINT LeftForeArmRoll
                {
                  OFFSET 0 6.97279 0
                  CHANNELS 3 Zrotation Xrotation Yrotation
                  JOINT LeftHand
                  {
                    OFFSET 0 13.9929 0
                    CHANNELS 3 Zrotation Xrotation Yrotation
                    End Site
                    {
                      OFFSET 0 0 0
                    }
                  }
                }
              }
            }
          }
        }
      }
    }
  }
  JOINT RightUpLeg
  {
    OFFSET -5.53516 -1.015 -0.851454
    CHANNELS 3 Zrotation Xrotation Yrotation
    JOINT RightUpLegRoll
    {
      OFFSET 0 16.4075 0
      CHANNELS 3 Zrotation Xrotation Yrotation
      JOINT RightLeg
      {
        OFFSET 0 -20.3181 0
        CHANNELS 3 Zrotation Xrotation Yrotation
        JOINT RightLegRoll
        {
          OFFSET 0 20.3846 0
          CHANNELS 3 Zrotation Xrotation Yrotation
          JOINT RightFoot
          {
            OFFSET 0 16.9668 0
            CHANNELS 3 Zrotation Xrotation Yrotation
            JOINT RightToeBase
            {
              OFFSET 0 14.1834 0
              CHANNELS 3 Zrotation Xrotation Yrotation
              End Site
              {
                OFFSET 0.0060118 6.8689 -0.791746
              }
            }
          }
        }
      }
    }
  }
  JOINT LeftUpLeg
  {
    OFFSET 5.53516 -1.015 -0.851454
    CHANNELS 3 Zrotation Xrotation Yrotation
    JOINT LeftUpLegRoll
    {
      OFFSET 0 16.4076 0
      CHANNELS 3 Zrotation Xrotation Yrotation
      JOINT LeftLeg
      {
        OFFSET 0 20.3181 0
        CHANNELS 3 Zrotation Xrotation Yrotation
        JOINT LeftLegRoll
        {
          OFFSET 0 20.5731 0
          CHANNELS 3 Zrotation Xrotation Yrotation
          JOINT LeftFoot
          {
            OFFSET 0 16.7783 0
            CHANNELS 3 Zrotation Xrotation Yrotation
            JOINT LeftToeBase
            {
              OFFSET 0 14.1834 0
              CHANNELS 3 Zrotation Xrotation Yrotation
              End Site
              {
                OFFSET -0.0269423 6.8689 -0.791746
              }
            }
          }
        }
      }
    }
  }
}
MOTION
Frames: 10
Frame Time: 0.00208333
48.9538 89.2739 -13.3351 0.581314 9.16877 -2.74637 -0.684044 -2.68526 -0.0628003 -1.36786 -1.36769 -0.0688543 -1.36697 0.277112 -0.0459678 5.22742 -11.1185 -2.39772 -10.0463 12.4579 -1.62029 33.7415 -14.7622 -10.92 46.9875 44.1541 53.3749 -2.88658e-006 1.61138e-007 -3.10227e-006 -1.58284 33.6528 -0.499348 -5.1095e-007 7.28909e-006 -3 8.02891 -4.95143 0.697685 -11.7254 -24.4673 27.8108 -26.2414 55.5171 -69.5166 -0 -4.77083e-015 -0 7.58934 8.25639 -0.464987 1.6789e-006 3.49753e-007 2.99999 -8.02987 -4.95144 -0.697666 167.161 16.5188 2.76112 180 7.0155e-015 178.938 -176.684 9.81627 178.964 3.05188e-006 -7.80708e-006 -0.599642 -15.3889 63.1126 16.2344 8.13627 25.2294 -3.49147 -164.316 15.1129 -5.55048 4.54188e-006 -4.6773e-006 -1.05821 3.06937 -13.4528 1.30557 -6.43784e-007 7.63522e-007 0.229008 16.357 65.1929 -17.5085 -8.1358 25.2221 3.49845 
48.9121 89.4823 -13.3468 0.588629 9.21768 -2.74557 -0.677346 -2.68986 -0.0579571 -1.35431 -1.37691 -0.0597652 -1.35352 0.267896 -0.0371054 4.89049 -11.4105 -2.38478 -9.76169 12.7351 -1.63644 33.729 -14.8114 -10.9734 48.143 44.1744 52.4123 -2.88658e-006 1.61138e-007 -3.10227e-006 -1.47776 33.4174 -0.551945 -5.1095e-007 7.28909e-006 -3 8.02891 -4.95143 0.697685 -12.1057 -24.5278 27.7613 -27.0047 55.7392 -68.9958 6.36111e-015 0 -9.54166e-015 7.6158 8.19685 -0.448884 1.6789e-006 3.49753e-007 2.99999 -8.02987 -4.95144 -0.697666 167.304 16.4843 2.67799 180 7.01551e-015 178.938 -176.687 9.57732 178.97 3.05188e-006 -7.80709e-006 -0.591309 -15.388 63.1605 16.2625 8.13649 25.2327 -3.48774 -164.5 15.0516 -5.46855 4.54188e-006 -4.6773e-006 -1.05923 2.99843 -13.1708 1.27501 -6.43784e-007 7.63522e-007 0.229149 16.3471 65.1858 -17.5049 -8.13649 25.2326 3.48774 
48.952 89.6776 -13.3684 0.599506 9.26872 -2.74079 -0.667103 -2.69382 -0.0516746 -1.33364 -1.38486 -0.0480818 -1.33298 0.259947 -0.0257681 4.45551 -11.7224 -2.379 -9.40047 13.0234 -1.67157 33.6531 -14.8835 -11.0565 49.3566 44.2095 51.4304 -2.88658e-006 1.61138e-007 -3.10227e-006 -1.37557 33.1904 -0.602102 -5.1095e-007 7.28909e-006 -3 8.02891 -4.95143 0.697685 -12.5492 -24.5885 27.6874 -27.7235 55.9616 -68.5665 -7.94503e-031 1.43125e-014 3.18055e-015 7.69346 8.15366 -0.439682 1.6789e-006 3.49753e-007 2.99999 -8.02987 -4.95144 -0.697666 167.433 16.4529 2.61304 180 7.01551e-015 178.939 -176.713 9.34795 178.98 3.05188e-006 -7.80709e-006 -0.585433 -15.3816 63.1847 16.2779 8.13649 25.2327 -3.48774 -164.685 15.0179 -5.38196 4.54188e-006 -4.6773e-006 -1.05831 2.93175 -12.9438 1.24902 -6.43784e-007 7.63522e-007 0.227341 16.3469 65.1927 -17.51 -8.13649 25.2327 3.48774 
48.9064 89.8689 -13.3738 0.61479 9.32503 -2.73327 -0.653497 -2.6977 -0.044036 -1.30619 -1.39266 -0.0339604 -1.30571 0.252158 -0.0121059 3.92158 -12.061 -2.3796 -8.96037 13.3295 -1.72494 33.5084 -14.982 -11.174 50.6435 44.2693 50.4214 -2.88658e-006 1.61138e-007 -3.10227e-006 -1.27705 32.9697 -0.650109 -5.1095e-007 7.28909e-006 -3 8.02891 -4.95143 0.697685 -13.0565 -24.6535 27.5958 -28.3886 56.1902 -68.235 -3.18055e-015 -6.36111e-015 -1.27222e-014 7.82204 8.12138 -0.436385 1.6789e-006 3.49753e-007 2.99999 -8.02987 -4.95144 -0.697666 167.55 16.4337 2.56518 180 7.01551e-015 178.941 -176.754 9.14062 178.99 3.05188e-006 -7.80709e-006 -0.578281 -15.3761 63.2071 16.2923 8.13649 25.2327 -3.48774 -164.872 15.0134 -5.2938 4.54188e-006 -4.6773e-006 -1.05563 2.86691 -12.769 1.22715 -6.43784e-007 7.63522e-007 0.223526 16.3548 65.2123 -17.5231 -8.13649 25.2327 3.48774 
48.9326 90.0564 -13.3954 0.633565 9.38586 -2.72315 -0.636932 -2.70146 -0.0352085 -1.2728 -1.40024 -0.0177023 -1.27251 0.244594 0.00359315 3.30268 -12.4221 -2.38594 -8.4524 13.6497 -1.79429 33.3049 -15.1032 -11.3211 51.9933 44.3478 49.3881 -2.88658e-006 1.61138e-007 -3.10227e-006 -1.18133 32.7544 -0.696209 -5.1095e-007 7.28909e-006 -3 8.02891 -4.95143 0.697685 -13.6182 -24.7217 27.4881 -29.0082 56.4241 -67.9876 6.36111e-015 -4.77083e-015 -1.27222e-014 7.99423 8.09921 -0.438265 1.6789e-006 3.49753e-007 2.99999 -8.02987 -4.95144 -0.697666 167.656 16.4257 2.53222 180 7.01551e-015 178.942 -176.81 8.95492 179.002 3.05188e-006 -7.80709e-006 -0.569955 -15.3715 63.2283 16.3057 8.13649 25.2327 -3.48774 -165.06 15.0352 -5.20435 4.54188e-006 -4.6773e-006 -1.0514 2.80391 -12.6422 1.20906 -6.43784e-007 7.63522e-007 0.217919 16.3701 65.2432 -17.5432 -8.13649 25.2327 3.48774 
48.8745 90.2385 -13.4112 0.654912 9.45047 -2.71055 -0.617811 -2.70507 -0.0253596 -1.23426 -1.40752 0.000390813 -1.23419 0.237322 0.0210412 2.61279 -12.8014 -2.39741 -7.8876 13.9805 -1.87738 33.0527 -15.2432 -11.493 53.395 44.4391 48.3339 -2.88658e-006 1.61138e-007 -3.10227e-006 -1.08754 32.5437 -0.740643 -5.1095e-007 7.28909e-006 -3 8.02891 -4.95143 0.697685 -14.2252 -24.7919 27.3662 -29.5907 56.6619 -67.8106 6.36111e-015 -1.43125e-014 -3.18055e-015 8.20271 8.08632 -0.444598 1.6789e-006 3.49753e-007 2.99999 -8.02987 -4.95144 -0.697666 167.755 16.4282 2.51196 180 7.01552e-015 178.944 -176.879 8.79049 179.015 3.05188e-006 -7.80709e-006 -0.560559 -15.368 63.2487 16.3186 8.13649 25.2327 -3.48774 -165.249 15.0806 -5.11392 4.54188e-006 -4.6773e-006 -1.04581 2.74277 -12.559 1.1944 -6.43784e-007 7.63522e-007 0.210739 16.3919 65.2841 -17.5697 -8.13649 25.2327 3.48774 
48.8922 90.4207 -13.4502 0.677917 9.51812 -2.69558 -0.596537 -2.70851 -0.0146565 -1.19139 -1.41445 0.0200175 -1.19155 0.230406 0.0399502 1.86591 -13.1947 -2.41338 -7.2771 14.3182 -1.97193 32.7617 -15.3982 -11.685 54.8372 44.5374 47.2628 -2.88658e-006 1.61138e-007 -3.10227e-006 -0.994829 32.3367 -0.783646 -5.1095e-007 7.28909e-006 -3 8.02891 -4.95143 0.697685 -14.8684 -24.8628 27.2318 -30.1449 56.9017 -67.6894 3.18055e-015 1.59028e-015 -0 8.44018 8.08188 -0.454661 1.6789e-006 3.49753e-007 2.99999 -8.02987 -4.95144 -0.697666 167.847 16.4403 2.5022 180 7.01552e-015 178.946 -176.959 8.64691 179.029 3.05188e-006 -7.80709e-006 -0.550196 -15.3658 63.269 16.3313 8.13649 25.2327 -3.48774 -165.438 15.1469 -5.0228 4.54188e-006 -4.6773e-006 -1.03908 2.68356 -12.5151 1.18282 -6.43784e-007 7.63522e-007 0.2022 16.4194 65.3336 -17.6016 -8.13649 25.2327 3.48774 
48.8763 90.5927 -13.4465 0.701661 9.58805 -2.67837 -0.573515 -2.71173 -0.00326667 -1.14501 -1.42096 0.0408762 -1.14542 0.223913 0.0600323 1.07605 -13.598 -2.43321 -6.63206 14.6593 -2.07566 32.442 -15.5645 -11.8922 56.3081 44.6371 46.1791 -2.88658e-006 1.61138e-007 -3.10227e-006 -0.902334 32.1327 -0.825448 -5.1095e-007 7.28909e-006 -3 8.02891 -4.95143 0.697685 -15.5384 -24.9333 27.0868 -30.6798 57.1417 -67.6093 6.36111e-015 4.77083e-015 -3.18055e-015 8.69936 8.08509 -0.467729 1.6789e-006 3.49753e-007 2.99999 -8.02987 -4.95144 -0.697666 167.935 16.4611 2.50078 180 7.01553e-015 178.949 -177.048 8.52382 179.044 3.05188e-006 -7.80709e-006 -0.538969 -15.3651 63.2897 16.3441 8.13649 25.2327 -3.48774 -165.627 15.2312 -4.93131 4.54188e-006 -4.6773e-006 -1.0314 2.62633 -12.506 1.17399 -6.43784e-007 7.63522e-007 0.192521 16.4519 65.3904 -17.6384 -8.13649 25.2327 3.48774 
48.8687 90.7587 -13.4694 0.725231 9.65952 -2.65904 -0.549148 -2.71471 0.00864255 -1.09592 -1.42698 0.0626653 -1.09659 0.217908 0.0809996 0.257246 -14.0069 -2.45627 -5.96374 15 -2.18625 32.104 -15.7383 -12.1097 57.7953 44.733 45.0877 -2.88658e-006 1.61138e-007 -3.10227e-006 -0.809213 31.9307 -0.866276 -5.1095e-007 7.28909e-006 -3 8.02891 -4.95143 0.697685 -16.226 -25.002 26.9331 -31.2049 57.3798 -67.5548 -6.36111e-015 -1.90833e-014 -6.36111e-015 8.97294 8.09511 -0.483078 1.6789e-006 3.49753e-007 2.99999 -8.02987 -4.95144 -0.697666 168.02 16.4898 2.50549 180 7.01554e-015 178.952 -177.145 8.42083 179.058 3.05188e-006 -7.80709e-006 -0.526981 -15.3659 63.3113 16.3573 8.13649 25.2327 -3.48774 -165.815 15.3309 -4.83976 4.54188e-006 -4.6773e-006 -1.02296 2.57117 -12.5274 1.16758 -6.43784e-007 7.63522e-007 0.181919 16.4886 65.4531 -17.679 -8.13649 25.2327 3.48774 
48.8167 90.9217 -13.4983 0.747711 9.73179 -2.63772 -0.52384 -2.71741 0.0209038 -1.04494 -1.43245 0.0850834 -1.04588 0.212456 0.102564 -0.57645 -14.4172 -2.4819 -5.28349 15.3368 -2.30138 31.7579 -15.9158 -12.3326 59.2861 44.8198 43.9941 -2.88658e-006 1.61138e-007 -3.10227e-006 -0.714627 31.7299 -0.906354 -5.1095e-007 7.28909e-006 -3 8.02891 -4.95143 0.697685 -16.922 -25.0678 26.7723 -31.7303 57.6139 -67.5101 -0 -9.54166e-015 -0 9.25364 8.11114 -0.499987 1.6789e-006 3.49753e-007 2.99999 -8.02987 -4.95144 -0.697666 168.104 16.5255 2.51417 180 7.01554e-015 178.955 -177.248 8.33758 179.073 3.05188e-006 -7.80709e-006 -0.514336 -15.3686 63.3344 16.3712 8.13649 25.2327 -3.48774 -166.001 15.443 -4.74846 4.54188e-006 -4.67731e-006 -1.01398 2.51818 -12.5751 1.16327 -6.43784e-007 7.63522e-007 0.170609 16.5286 65.5203 -17.7228 -8.13649 25.2327 3.48774 
